<?xml version="1.0" standalone="no"?><!DOCTYPE svg PUBLIC "-//W3C//DTD SVG 1.1//EN" "http://www.w3.org/Graphics/SVG/1.1/DTD/svg11.dtd"><svg t="1711376157289" class="icon" viewBox="0 0 1024 1024" version="1.1" xmlns="http://www.w3.org/2000/svg" p-id="30023" xmlns:xlink="http://www.w3.org/1999/xlink" width="200" height="200"><path d="M862.6 63.9h-700c-0.7 0-1.5 0.1-2.2 0.3-3.4 1-5.2 4.6-4.2 8v881.4c0 3.5 2.9 6.4 6.4 6.4h700c3.5 0 6.4-2.9 6.4-6.4V70.2c0-3.5-2.9-6.3-6.4-6.3z m-649.8 98.9c0.6-11.1 9.9-19.7 21-19.5h559.1c10.5 0.6 18.9 9 19.5 19.5v64.8H212.8v-64.8z m15.8 641.9h-6.4c21.8-30.5 34.7-66.4 37.5-103.8H305s-25.8 97.1-76.4 103.8z m206.1-103.8h46.8c5.6 36.7 18.3 72 37.5 103.8 0 0-32.6 12.8-84.3-103.8z m85-19.5H396.4V761.3c-0.6 24.4-20.9 43.7-45.3 43.1h-25.9v-25.9h6c1.6 0.2 3.2 0.2 4.8 0 9.4-1.3 16-10.1 14.6-19.5v-71.2H221.1l45.3-97.4h-53.6v-32.2h80.9v-19.5h37.5v19.5h200.9V584h-214l-32.2 71.2h72.7v-45.3h37.5v45.7h123.7v25.8z m82.9 123.3h-37.5V649.2h-37.5v-13.1c71.2-59.6 64.8-97.1 64.8-97.1l36-0.4c-2.2 23.6-11.2 46.2-25.9 64.8v201.3z m78.3-91l-32.2-71.2h38.6l25.9 71.2h-32.3z m155.5-103.8h-32.2v129.7c0 26.2-19.5 58.5-45.3 58.5H733v-6.4c10.5-0.6 18.9-9 19.5-19.5V616.6h-129l6.4-25.9 131.5-0.4v-51.7h37.5V584h37.5v25.9z" fill="#CB0F19" p-id="30024"></path><path d="M214.4 225h596.2v112.4H214.4V225z" fill="#CEA754" p-id="30025"></path></svg>