<?xml version="1.0" standalone="no"?><!DOCTYPE svg PUBLIC "-//W3C//DTD SVG 1.1//EN" "http://www.w3.org/Graphics/SVG/1.1/DTD/svg11.dtd"><svg t="1711376236239" class="icon" viewBox="0 0 1637 1024" version="1.1" xmlns="http://www.w3.org/2000/svg" p-id="31153" xmlns:xlink="http://www.w3.org/1999/xlink" width="319.7265625" height="200"><path d="M326.056174 8.894518h398.437001c55.610769 0 90.17385 45.540999 77.219371 101.525711l-185.52949 799.090953c-13.061319 55.851161-68.752218 101.312029-124.416407 101.312029H93.276228c-55.610769 0-90.17385-45.460868-77.246082-101.312029l185.636331-799.090953C214.620955 54.435517 270.285144 8.894518 326.056174 8.894518" fill="#DF3232" p-id="31154"></path><path d="M691.345738 8.894518h458.187859c55.637479 0 30.583252 45.540999 17.495223 101.525711l-185.50278 799.090953c-13.007898 55.851161-8.921228 101.312029-64.665548 101.312029H458.619212c-55.690899 0-90.147139-45.460868-77.112531-101.312029l185.47607-799.090953c13.088029-55.984712 68.725508-101.525711 124.362987-101.525711" fill="#004889" p-id="31155"></path><path d="M1131.450749 8.894518h398.41029c55.664189 0 90.25398 45.540999 77.219372 101.525711l-185.52949 799.090953c-13.007898 55.851161-68.698798 101.312029-124.443118 101.312029H898.750934c-55.690899 0-90.280691-45.460868-77.219372-101.312029l185.449359-799.090953c13.034609-55.984712 68.698798-101.525711 124.469828-101.525711" fill="#00808A" p-id="31156"></path><path d="M1375.288744 564.494708l-2.0834 2.323793h0.347233l-19.498492 33.44125c-6.143361 11.405283-17.575353 19.979277-35.738333 20.086118l-31.010616-0.534205 9.028069-30.155887h6.03652a16.827466 16.827466 0 0 0 7.265192-1.068411c1.522485-0.480785 2.671026-1.736167 3.979829-3.525755l10.951208-17.468512-0.053421-0.106841c15.411822-23.531742 19.31152-33.681642 35.3911-60.472037-2.831288-29.915495-4.166801-39.611321-6.544015-59.243364-1.362223-11.699095-3.205232-23.718714-4.594165-35.578071-2.964839-24.119368-2.297083-20.700454-5.235212-36.058856l-0.186972-0.400654 0.347234-2.671026 1.896428-1.629326c23.932396-3.01826 24.600153-3.899698 50.482398-8.814387l2.136821 2.110111 3.472335 68.351564 0.160261 2.297083c13.782496-30.850354 13.19487-22.30307 30.155888-61.567158l0.160261 0.373944 0.186972-1.121831 1.709457-1.629326c22.757144-3.01826 27.244469-3.899698 51.924752-8.814387l1.949849 2.110111s-99.549152 171.506602-112.637181 199.76606z m-83.14905-59.430336l-2.216952 1.709457a852.377928 852.377928 0 0 0-53.500658 0.721177l-1.469064-1.762877c0.774598-2.911419 1.442354-5.822837 2.216952-8.707546-8.173341 6.891248-16.934307 11.912778-26.469871 12.446983a63.196483 63.196483 0 0 1-27.805385-5.04824c-31.064036-12.20659-26.069217-46.288887-21.742154-64.932651 4.246932-18.536923 11.512124-37.714892 26.683553-51.844621 21.475052-19.738885 46.63612-25.134358 57.373646-20.967557 8.467154 3.258652 13.729075 8.600705 17.468512 14.744065l0.801308-5.929678 1.816298-1.442354c23.985817-3.525755 30.636672-4.380483 55.6909-9.05478l0.801308 2.056691c-4.567455 18.990997-9.188331 37.928574-13.568814 56.999702-9.241751 39.878423-12.580534 60.124803-16.079579 81.012229z m-50.989893-106.894474c-15.919317 0-22.142808 19.551913-27.431441 42.469319-1.843008 8.11992-3.338783 15.705635-3.258652 22.890695 0.347233 14.583804 10.1499 14.583804 11.752516 14.583804 5.555735 0 15.385112-3.632596 19.471782-9.508854 1.949849-2.537475 3.712727-6.223491 5.261922-10.20332 1.816298-7.345322 3.872988-14.637224 5.582445-22.035968a1031.01617 1031.01617 0 0 0 2.96484-13.22158c0.98828-15.732345-4.327063-24.974096-14.343412-24.974096z m-86.674805-1.121831c-28.847085 21.31479-65.733958 21.31479-98.32048 21.31479h-3.445624a18.510213 18.510213 0 0 0-4.754427 4.540745c-0.427364 1.148541-8.013079 32.666652-8.013079 32.666652s-8.787677 42.843263-10.336872 50.001613c-6.437173-0.614336-21.929126-0.614336-59.724149-0.240392l38.863434-160.635525 15.438532-72.224552 1.816298-8.867808c7.158351 0.881439 24.493312 1.068411 67.870779 0.587626l16.613784-0.240392c33.922035 0.240392 63.169773 0.534205 77.887128 21.234659 5.876258 7.745976 7.852817 17.708905 7.852818 27.725254 0 7.639135-1.121831 15.331691-2.697737 21.822285-5.956389 26.122638-19.471782 47.704531-39.050405 62.315045z m-37.340948-94.153679c-0.881439-0.133551-34.856894-3.098391-34.856894-3.098391L1075.706429 299.128241l-0.373944 2.884708-0.400654 3.659306c0.080131-0.213682-16.506943 71.797188-16.506942 71.797188l-0.641047 3.579176h8.921228c13.889337 0 27.297889-0.454074 38.329228-5.956389 13.328421-6.544015 23.611873-20.059408 27.164338-35.978725 3.872988-17.575353-1.629326-31.090747-15.064588-36.219117z m-166.752175 142.659517c-6.597435 30.716803-7.532294 36.325958-11.084759 57.373646l-2.457345 1.816298a601.862367 601.862367 0 0 0-50.535818 0.828018l-0.828018-1.709457c2.05669-8.947938 4.246932-17.762325 6.357042-26.817104l2.804578-12.17988c4.353773-19.071128 8.573995-41.240647 9.054779-47.944923 0.427364-4.08667 1.762877-14.20986-9.695825-14.209861-4.914688 0-9.989639 2.350503-15.118009 4.781138-2.777867 10.12319-8.520574 38.48949-11.298442 51.497388-5.715996 27.297889-6.11665 30.39628-8.707546 43.938383l-1.709457 1.816298a621.601252 621.601252 0 0 0-51.470677 0.828018l-1.095121-1.923139c3.979829-16.23984 7.852817-32.613232 11.645675-48.799651 9.989639-44.018514 12.313431-60.84598 15.064588-83.202471l1.843008-1.362223c23.211219-3.231942 28.847085-3.846278 53.928022-9.05478l2.00327 2.350503-3.659306 14.049599c4.08667-2.510765 8.306892-5.07495 12.580534-7.345322a77.993969 77.993969 0 0 1 32.105737-7.532295c11.004629 0 23.050957 3.04497 28.206038 15.785766 4.674296 11.351862 1.522485 25.37475-4.807847 53.019873l-3.125101 13.996178z m-172.414751 37.100556c-17.575353 18.777315-41.080385 25.080937-63.944371 25.080937-8.947938 0-22.783855-1.148541-32.45297-5.288632-31.277719-12.607244-26.229479-46.796382-21.955836-65.680538 4.327063-18.536923 11.458703-37.955284 26.790394-52.165144 21.421631-19.872436 48.772941-21.020977 60.258354-21.020978 19.151259 0 37.55463 4.353773 48.051764 17.682195 6.891248 8.841097 12.233301 23.31806 5.235212 54.248545-2.110111 9.241751-8.280182 31.892055-21.982547 47.143615z m-38.275807-87.502823c-15.892607 0-22.196229 19.658754-27.404731 43.083655-1.869718 8.039789-3.312073 15.545373-3.258652 22.863985 0.213682 14.690645 10.12319 14.690645 11.699095 14.690645 5.662576 0 10.764236-3.632596 15.037879-9.669115 6.196781-8.306892 10.710816-27.671833 11.752516-32.853624 5.502314-23.505032 4.647586-38.115546-7.826107-38.115546z m-142.125312-9.1082c-11.245021-6.704276-9.775956-19.551913 3.632595-28.686823 13.381842-9.268461 33.120727-11.351862 44.472589-4.647586 11.13818 6.650856 9.508854 19.418362-3.686016 28.660113-13.408552 9.241751-33.227568 11.16489-44.419168 4.674296z m47.864792 5.529025l0.427364 1.148541 0.400654 1.06841c-2.350503 9.562274-4.701006 19.044418-6.971379 28.766954-2.243662 9.642405-4.514035 19.124549-6.677566 28.633403-4.514035 20.326511-6.276912 27.885515-7.372032 33.280988-1.01499 5.155081-1.308803 7.932948-3.098391 18.456792l-1.095121 0.934859-1.095121 0.881439c-12.073039-0.080131-19.845726-0.320523-27.43144-0.080131-7.532294 0.080131-14.904327 0.400654-26.069217 0.908149l-0.721177-0.908149-0.721178-1.01499c3.01826-11.645675 4.781137-15.759055 6.276912-19.845726 1.495775-4.113381 2.99155-8.226761 5.662576-20.059407 3.525755-15.385112 5.689286-26.176058 7.211771-35.604782 1.575906-9.13491 2.510765-16.854176 3.712727-25.855535l0.908149-0.694467 0.961569-0.881438c11.992908-1.682747 19.658754-2.804578 27.37802-4.05996 7.906238-1.121831 15.812476-2.644316 28.31288-5.07495z m-93.432502 53.981442a1157.409137 1157.409137 0 0 0-11.11147 57.373646l-2.350503 1.816298a600.446723 600.446723 0 0 0-50.509108 0.828018l-0.934859-1.709457c2.083401-8.947938 4.246932-17.762325 6.250201-26.817104l2.884709-12.17988c4.353773-19.071128 8.600705-41.240647 9.08149-47.944923 0.427364-4.08667 1.789588-14.20986-9.802667-14.209861-4.834558 0-9.936218 2.350503-15.037878 4.781138-2.804578 10.12319-8.520574 38.48949-11.218311 51.497388-5.769417 27.297889-6.196781 30.39628-8.734256 43.938383l-1.736167 1.816298a623.978465 623.978465 0 0 0-51.577519 0.828018l-1.095121-1.923139c4.00654-16.23984 7.959659-32.613232 11.699095-48.799651 9.989639-44.018514 12.313431-60.84598 15.14472-83.202471l1.869718-1.362223c23.157798-3.231942 28.766954-3.846278 53.821181-9.05478l2.110111 2.350503-3.739437 14.049599c4.166801-2.510765 8.280182-5.07495 12.633955-7.345322a78.314493 78.314493 0 0 1 32.185867-7.532295c10.977918 0 22.944116 3.04497 28.019067 15.785766 4.754427 11.351862 1.602616 25.37475-4.647586 53.019873l-3.205232 13.996178z m-157.457003-41.854983l-3.338783 13.034609c-7.185061 25.32133-15.304981 54.061573-46.182046 72.384814-17.789035 10.844367-44.045224 16.880887-72.171132 16.880886-21.768865 0-60.258354-3.552465-73.827168-27.217758-4.166801-7.505584-6.276912-16.373392-6.276912-27.110918l4.834558-36.459509 2.590896-11.191601 29.648392-131.414496s1.469064-7.265192 1.762877-8.413733c0.694467 0.854728 10.764236 1.362223 67.283154 0.854728a11.485413 11.485413 0 0 0-0.480785 1.762878c-5.181791 15.358401-34.215848 132.002122-34.215847 132.002122l-5.555735 34.883604 0.293813 5.876258c1.843008 17.20141 12.500403 26.256189 30.609962 26.256189a44.873243 44.873243 0 0 0 29.408-10.283451c14.717355-11.886067 18.990997-30.39628 25.027517-56.385367l29.194318-134.966961c3.899698 0.854728 15.972738 1.308803 56.892861 0.854728a5.07495 5.07495 0 0 0-0.427364 1.762878c-5.128371 15.678925-35.070576 136.8901-35.070576 136.8901z m287.242173 290.393985h28.980636l7.665846-25.908956h-28.873795l9.241751-30.39628h127.007303l-9.375302 30.39628h-50.802922l-7.879527 25.908956h51.898042l-9.428723 31.384559h-51.951463l-12.553824 42.148796c-1.575906 4.674296 12.260011 5.315342 17.308251 5.315343l25.962376-3.605886-10.417003 34.723342h-58.575607c-4.620876 0-8.226761-0.694467-13.301712-1.843008a13.729075 13.729075 0 0 1-9.348592-6.784407c-2.083401-3.418914-5.315342-6.276912-3.151811-13.595524l16.800756-55.877871h-28.793664l9.588984-31.865344z m145.090152-79.142511h-71.182853l-7.719266 6.624145c-3.258652 3.258652-4.460614 1.923139-8.734256 4.246932a51.791201 51.791201 0 0 1-23.478322 6.03652h-22.837275l9.268462-30.529831h6.891248c5.796127 0 9.749246-0.507495 11.699095-1.789588 2.270372-1.442354 4.807847-4.727717 7.719266-9.909508l13.088029-23.878975h51.817911l-9.108199 17.388381h52.111724l-9.535564 31.811924z m31.892054-48.826362h44.365748l-6.437174 22.383201s14.022888-11.1916 23.825555-15.22485c9.775956-3.659306 31.892055-6.944669 31.892055-6.944668l71.770478-0.400654-24.386471 81.760116c-4.166801 14.022888-8.921228 23.077668-11.939487 27.164338a30.983906 30.983906 0 0 1-12.179881 11.218311 45.140345 45.140345 0 0 1-16.667204 5.609155c-4.754427 0.347233-12.046329 0.560916-22.089388 0.641046h-69.152872l-19.551913 64.692258c-1.816298 6.410463-2.724447 9.402013-1.522485 11.164891 1.068411 1.549195 3.365493 3.312073 6.677566 3.312072l30.4497-2.857998-10.390292 35.417809h-34.162427c-10.871077 0-18.804025-0.213682-24.35976-0.667756-5.261922-0.400654-10.764236 0-14.396833-2.857998-3.178521-2.804578-8.039789-6.517304-7.932948-10.256741a127.675059 127.675059 0 0 1 3.979829-17.361672l62.208204-206.79086z m104.196738 51.337127l5.235212-17.495223H894.877945l-10.630685 35.47123s14.18315-13.034609 38.569621-17.28154c5.555735-1.095121 40.145526-0.694467 40.145526-0.694467z m-24.199499 45.941653c7.425453-0.908149 8.921228 0.213682 9.562275-0.186972l4.701006-14.557093h-72.785468l-4.460614 14.744065h62.982801z m-8.841097 36.619771l-0.587626 17.682195h10.390293c3.525755 0 5.902968-0.373944 7.372032-1.282093a8.841097 8.841097 0 0 0 2.96484-4.540745l4.193511-13.835916h33.922035l-4.140091 19.658754c-1.762877 6.11665-3.312073 10.790946-7.906238 14.744065-4.781137 4.113381-10.523844 8.387023-23.878976 8.387023l-24.546732 1.01499-0.267102 22.222939c-0.320523 6.330332 1.362223 5.662576 2.403923 6.704276a8.013079 8.013079 0 0 0 3.258652 1.949849l7.745977-0.373943 23.505032-1.362224-9.669116 32.37284h-26.977366c-18.910867 0-32.933755-0.373944-37.55463-4.05996-4.540745-2.911419-5.181791-6.517304-4.99482-12.740796l1.682747-86.541254h43.083655z m77.539895 62.608858h9.482143l49.253726-163.680495 9.802667-33.040596h47.170325l-4.968109 16.640494s12.607244-9.08149 24.493312-12.126459c9.936218-2.644316 58.869421-3.872988 74.788738-4.220222v-0.080131h4.407193l1.01499-0.02671v0.02671h44.899953l0.560916 18.804026c-0.320523 3.151811 2.430634 4.727717 8.253471 4.727717h10.256741l-9.428723 31.010615h-27.137628c-23.505032 1.736167-32.45297-8.440443-31.865344-19.845725l-0.507495-18.510213-5.12837 16.640494h-16.15971l-48.532549 161.249861h13.061319l-10.1499 33.280988h-13.034608l-3.044971 10.363582h-46.182045l3.151811-10.363582H997.979562l9.482144-30.850354z m134.593018-133.711579l8.974648-29.968916h-37.447789l-12.500404 41.187227s14.022888-6.303622 21.635314-8.387023c7.745976-2.02998 19.338231-2.831288 19.338231-2.831288z m-9.562275 31.705083h-37.58134l-12.901058 42.843262s14.316701-7.318612 21.902416-9.588984c7.719266-1.843008 19.445072-3.258652 19.445072-3.258653l9.13491-29.995625zM1102.416693 760.601463l10.844367-36.192407h-37.50121l-10.924498 36.192407H1102.416693z m68.271433 13.19487a22.196229 22.196229 0 0 0 9.802667-2.804578 15.22485 15.22485 0 0 0 7.345322-6.223491l36.272538-51.310416h-47.944923l8.226761-27.645123h54.782751l7.826107-25.241199h-54.114994l9.268461-31.224298h150.645886l-9.402012 31.224298h-50.482398l-7.959659 25.241199h50.66937l-8.306892 27.645123h-54.862881l-9.695826 11.672385h22.196229l5.448894 34.883604c0.560916 3.418914 0.641046 5.635866 1.736167 7.13164 1.121831 1.335513 7.772687 1.869718 11.645675 1.869719h6.704276l-10.230031 33.975455h-17.094568c-2.671026 0-6.570725-0.240392-11.912778-0.534205-5.128371-0.400654-8.787677-3.472334-12.286721-5.07495a16.854176 16.854176 0 0 1-8.974649-11.886068l-5.288632-34.803473-24.893965 34.322689c-7.932948 10.764236-18.590343 19.044418-36.699902 19.044417h-34.883605l9.08149-30.262728h13.381842z" fill="#FFFFFF" p-id="31157"></path></svg>