<?xml version="1.0" encoding="UTF-8"?>
<svg id="_图层_1" data-name="图层 1" xmlns="http://www.w3.org/2000/svg" viewBox="0 0 60.89 53.73">
  <path class="cls-1" d="M22.15,33.99c-.28.14-.59.22-.91.22-.76,0-1.42-.42-1.77-1.04l-.13-.29-5.54-12.16c-.06-.13-.1-.28-.1-.43,0-.56.46-1.02,1.02-1.02.23,0,.44.08.61.2l6.54,4.66c.48.31,1.05.5,1.66.5.37,0,.72-.07,1.04-.19l30.76-13.69C49.8,4.25,40.72,0,30.45,0,13.63,0,0,11.36,0,25.37c0,7.65,4.1,14.53,10.52,19.18.51.37.85.97.85,1.65,0,.23-.05.43-.11.65-.51,1.91-1.33,4.97-1.37,5.12-.06.24-.16.49-.16.74,0,.56.46,1.01,1.02,1.01.22,0,.4-.08.59-.19l6.67-3.85c.5-.29,1.03-.47,1.62-.47.31,0,.61.05.89.13,3.11.89,6.46,1.39,9.94,1.39,16.81,0,30.45-11.36,30.45-25.37,0-4.24-1.26-8.24-3.47-11.76l-35.06,20.24-.22.13Z" fill="#f5f5f5"/>
</svg>